<svg xmlns="http://www.w3.org/2000/svg" width="142" height="116" viewBox="0 0 142 116">
<g>
<path d="M 82.77 52.02 C74.90,59.03 73.86,58.51 79.01,50.13 C85.84,39.04 87.68,27.43 84.10,18.01 C82.59,14.04 82.48,13.00 83.56,13.00 C84.91,13.00 120.53,27.20 128.87,31.07 C131.27,32.18 132.99,33.34 132.69,33.65 C132.38,33.95 128.62,34.34 124.32,34.51 C111.21,35.04 93.40,42.54 82.77,52.02 ZM 70.00 55.63 C70.00,57.71 68.60,57.28 65.92,54.36 C58.89,46.69 35.04,35.06 26.25,35.01 C25.01,35.01 24.00,34.58 24.00,34.06 C24.00,33.54 22.11,32.98 19.80,32.81 L 15.59 32.50 L 21.55 29.60 C30.57,25.20 64.19,11.85 64.77,12.44 C65.05,12.72 64.68,13.68 63.94,14.58 C63.19,15.47 62.47,16.72 62.32,17.35 C62.18,17.98 61.50,20.41 60.83,22.74 C59.84,26.12 59.85,28.23 60.88,33.24 C62.34,40.30 65.48,48.33 68.19,51.88 C69.18,53.20 70.00,54.88 70.00,55.63 ZM 64.57 105.75 C64.58,105.83 64.60,105.91 64.61,105.98 C64.72,106.47 64.78,106.75 64.67,106.84 C64.53,106.96 64.06,106.69 62.93,106.03 C62.82,105.96 62.69,105.89 62.55,105.81 C61.48,105.19 59.68,104.57 58.55,104.44 C55.14,104.03 21.05,90.19 19.39,88.54 C18.55,87.69 17.33,86.95 16.68,86.89 C15.35,86.76 20.68,85.53 29.25,83.99 C40.76,81.92 53.20,75.42 66.77,64.37 C68.57,62.91 70.27,61.93 70.54,62.21 C70.81,62.48 69.44,65.35 67.49,68.59 C63.53,75.16 60.00,85.86 60.00,91.27 C60.00,93.23 60.97,97.01 62.16,99.67 C63.34,102.33 64.43,105.06 64.57,105.75 ZM 87.22 105.03 C80.15,108.29 79.79,107.93 83.63,101.37 C85.98,97.36 86.21,96.13 85.78,89.69 C85.26,81.82 80.45,68.63 76.95,65.46 C75.88,64.49 75.00,63.31 75.00,62.85 C75.00,61.06 77.75,62.13 80.48,64.98 C84.46,69.13 95.35,76.23 102.50,79.32 C109.72,82.44 114.45,83.67 122.77,84.58 C126.22,84.95 129.29,85.65 129.58,86.13 C129.88,86.61 129.67,87.00 129.13,87.00 C128.59,87.00 127.55,87.59 126.82,88.31 C126.09,89.03 117.85,92.64 108.50,96.33 C99.15,100.03 89.58,103.94 87.22,105.03 Z" fill="rgb(5,5,5)"/>
<path d="M 64.57 105.75 C64.43,105.06 63.34,102.33 62.16,99.67 C62.15,99.66 62.15,99.64 62.14,99.63 C63.41,102.31 65.12,104.66 66.91,105.93 C68.61,107.15 70.00,108.56 70.00,109.07 C70.00,110.49 67.94,110.02 63.00,107.45 C60.53,106.17 48.15,101.02 35.50,96.01 C22.85,91.00 11.49,86.48 10.25,85.97 C8.00,85.04 7.13,83.00 8.99,83.00 C9.53,83.00 11.95,83.53 14.36,84.17 C21.01,85.95 32.67,83.97 43.70,79.18 C44.75,78.73 45.75,78.27 46.72,77.82 C40.66,80.93 34.85,82.98 29.25,83.99 C20.68,85.53 15.35,86.76 16.68,86.89 C17.33,86.95 18.55,87.69 19.39,88.54 C21.05,90.19 55.14,104.03 58.55,104.44 C59.68,104.57 61.48,105.19 62.55,105.81 C62.69,105.89 62.82,105.96 62.93,106.03 C64.06,106.69 64.53,106.96 64.67,106.84 C64.78,106.75 64.72,106.47 64.61,105.98 C64.60,105.91 64.58,105.83 64.57,105.75 ZM 35.09 23.70 C29.37,26.07 24.31,28.25 21.55,29.60 L 15.59 32.50 L 19.80 32.81 C22.11,32.98 24.00,33.54 24.00,34.06 C24.00,34.58 25.01,35.01 26.25,35.01 C30.10,35.03 36.85,37.28 43.80,40.45 C40.62,39.07 37.35,37.84 34.15,36.84 C27.64,34.81 13.69,34.55 9.75,36.40 C8.49,36.98 8.00,36.79 8.00,35.70 C8.00,34.72 10.90,33.12 16.25,31.14 C19.44,29.96 26.92,27.00 35.09,23.70 ZM 107.59 81.34 C117.00,84.43 127.66,85.38 135.38,83.61 C142.09,82.08 139.17,85.20 131.42,87.83 C124.26,90.27 102.10,98.83 91.72,103.11 C95.94,101.36 102.27,98.80 108.50,96.33 C117.85,92.64 126.09,89.03 126.82,88.31 C127.55,87.59 128.59,87.00 129.13,87.00 C129.67,87.00 129.88,86.61 129.58,86.13 C129.29,85.65 126.22,84.95 122.77,84.58 C116.55,83.90 112.34,83.04 107.59,81.34 ZM 61.51 20.34 C61.91,18.93 62.23,17.76 62.32,17.35 C62.47,16.72 63.19,15.47 63.94,14.58 C64.68,13.68 65.05,12.72 64.77,12.44 C64.45,12.12 54.35,15.93 43.76,20.17 C44.34,19.93 44.92,19.69 45.50,19.46 C46.08,19.22 46.65,18.98 47.21,18.75 C63.52,12.04 69.53,9.57 69.98,10.35 C70.25,10.80 68.62,12.36 66.05,14.83 C65.90,14.97 65.75,15.12 65.59,15.27 C63.65,17.12 62.35,18.73 61.51,20.34 ZM 99.28 18.87 C90.98,15.60 84.14,13.00 83.56,13.00 C82.48,13.00 82.59,14.04 84.10,18.01 C84.55,19.20 84.92,20.43 85.20,21.69 C84.18,17.42 81.99,14.05 78.65,12.25 C75.84,10.74 75.73,10.52 77.62,10.23 C78.78,10.04 82.38,11.23 85.62,12.86 C87.91,14.02 93.09,16.27 99.28,18.87 ZM 126.56 34.40 C129.85,34.20 132.44,33.90 132.69,33.65 C132.99,33.34 131.27,32.18 128.87,31.07 C127.40,30.38 125.08,29.38 122.25,28.19 C127.79,30.36 132.31,32.05 134.31,32.66 C137.20,33.53 138.95,34.59 138.69,35.31 C138.45,35.96 137.63,36.33 136.88,36.13 C133.20,35.13 129.85,34.55 126.56,34.40 ZM 82.77 52.02 C88.31,47.08 95.80,42.67 103.57,39.52 C95.69,42.90 87.61,47.70 82.77,52.02 ZM 85.81 25.96 C86.34,33.59 84.02,42.00 79.01,50.13 C83.99,42.05 86.25,33.21 85.81,25.96 ZM 62.11 38.12 C61.63,36.49 61.21,34.84 60.88,33.24 C60.15,29.66 59.93,27.56 60.23,25.42 C60.08,28.84 60.83,33.51 62.11,38.12 ZM 91.23 73.15 C86.76,70.29 82.62,67.21 80.48,64.98 C82.54,67.13 86.73,70.25 91.23,73.15 Z" fill="rgb(81,81,81)"/>
<path d="M 0.00 58.00 L 0.00 0.00 L 71.00 0.00 L 142.00 0.00 L 142.00 58.00 L 142.00 116.00 L 71.00 116.00 L 0.00 116.00 L 0.00 58.00 ZM 70.00 109.07 C70.00,108.56 68.61,107.15 66.91,105.93 C63.30,103.36 60.00,96.36 60.00,91.27 C60.00,85.86 63.53,75.16 67.49,68.59 C69.44,65.35 70.81,62.48 70.54,62.21 C70.27,61.93 68.57,62.91 66.77,64.37 C56.91,72.40 51.84,75.65 43.70,79.18 C32.67,83.97 21.01,85.95 14.36,84.17 C11.95,83.53 9.53,83.00 8.99,83.00 C7.13,83.00 8.00,85.04 10.25,85.97 C11.49,86.48 22.85,91.00 35.50,96.01 C48.15,101.02 60.53,106.17 63.00,107.45 C67.94,110.02 70.00,110.49 70.00,109.07 ZM 87.22 105.03 C93.04,102.34 122.88,90.73 131.42,87.83 C139.17,85.20 142.09,82.08 135.38,83.61 C126.10,85.73 112.56,83.94 102.05,79.20 C95.11,76.07 84.24,68.91 80.48,64.98 C77.75,62.13 75.00,61.06 75.00,62.85 C75.00,63.31 75.88,64.49 76.95,65.46 C80.45,68.63 85.26,81.82 85.78,89.69 C86.21,96.13 85.98,97.36 83.63,101.37 C79.79,107.93 80.15,108.29 87.22,105.03 ZM 70.00 55.63 C70.00,54.88 69.18,53.20 68.19,51.88 C63.35,45.53 59.18,30.22 60.44,23.48 C60.97,20.64 62.44,18.29 65.59,15.27 C73.18,7.99 73.61,7.90 45.50,19.46 C33.95,24.21 20.79,29.46 16.25,31.14 C10.90,33.12 8.00,34.72 8.00,35.70 C8.00,36.79 8.49,36.98 9.75,36.40 C13.69,34.55 27.64,34.81 34.15,36.84 C46.72,40.76 60.32,48.26 65.92,54.36 C68.60,57.28 70.00,57.71 70.00,55.63 ZM 82.77 52.02 C88.85,46.60 100.03,40.42 109.50,37.23 C119.77,33.78 127.16,33.48 136.88,36.13 C137.63,36.33 138.45,35.96 138.69,35.31 C138.95,34.59 137.20,33.53 134.31,32.66 C127.60,30.62 92.74,16.45 85.62,12.86 C82.38,11.23 78.78,10.04 77.62,10.23 C75.73,10.52 75.84,10.74 78.65,12.25 C88.12,17.35 88.29,35.05 79.01,50.13 C73.86,58.51 74.90,59.03 82.77,52.02 Z" fill="rgb(252,252,252)"/>
</g>
</svg>